 <svg version="1.0" xmlns="http://www.w3.org/2000/svg" width="700.000000pt" height="700.000000pt" viewBox="0 0 700.000000 700.000000" preserveAspectRatio="xMidYMid meet">
<g transform="translate(0.000000,700.000000) scale(0.100000,-0.100000)" fill="#000000" stroke="none">
<path d="M0 3500 l0 -3500 3500 0 3500 0 0 3500 0 3500 -3500 0 -3500 0 0
-3500z m4210 2210 c77 -12 206 -45 255 -65 19 -8 48 -15 64 -15 42 0 179 -51
245 -90 167 -101 337 -345 402 -575 98 -344 107 -571 34 -794 -52 -159 -202
-441 -234 -441 -7 0 -37 -26 -67 -58 -216 -230 -538 -382 -974 -459 -142 -25
-501 -25 -635 0 -165 31 -276 67 -375 121 -52 29 -70 33 -130 33 -53 0 -98 8
-190 37 -66 20 -130 41 -141 46 -12 5 -70 18 -129 30 -81 17 -129 21 -198 18
-110 -6 -168 -26 -296 -103 -50 -30 -93 -55 -96 -55 -3 0 -5 7 -5 15 0 15 104
88 170 118 94 44 153 57 255 57 111 0 235 -23 375 -70 47 -15 110 -35 142 -44
60 -17 128 -21 128 -8 0 4 -15 23 -34 41 -100 97 -125 273 -47 338 74 62 181
-7 227 -146 26 -79 7 -167 -48 -228 l-20 -22 61 -30 c106 -54 225 -92 346
-111 39 -6 81 -13 95 -16 14 -2 88 -7 165 -10 214 -9 471 27 705 100 34 10
-21 5 -97 -9 -44 -9 -134 -15 -208 -15 -248 0 -425 57 -560 182 -11 10 -54 40
-95 67 -216 140 -389 424 -477 781 -14 60 -18 115 -18 270 0 229 12 288 95
455 163 327 554 601 935 654 86 12 299 13 375 1z m-2779 -2887 c18 -32 36 -59
41 -61 4 -2 8 -35 8 -73 0 -62 -2 -69 -20 -69 -18 0 -20 7 -20 61 0 52 -5 70
-35 119 -38 63 -43 80 -21 80 8 0 29 -26 47 -57z m521 -63 c61 -143 60 -140
40 -140 -12 0 -25 17 -39 51 l-22 50 -47 -3 c-46 -3 -49 -5 -72 -51 -14 -26
-27 -45 -29 -43 -3 3 2 17 11 33 8 15 23 46 32 68 12 28 18 35 21 23 3 -13 14
-18 39 -18 39 0 41 6 17 54 -13 28 -19 33 -30 25 -17 -15 -16 -7 4 36 9 19 20
32 24 28 4 -5 27 -55 51 -113z m336 113 c-15 -4 -18 -16 -18 -69 l0 -64 28 6
c50 12 62 23 62 56 0 17 -7 40 -17 50 -15 17 -15 18 2 18 28 0 55 -30 55 -60
0 -25 -30 -63 -57 -71 -8 -3 3 -24 27 -56 45 -59 47 -63 22 -63 -9 0 -37 25
-60 55 -24 30 -47 55 -53 55 -5 0 -9 -25 -9 -55 0 -42 -3 -55 -15 -55 -13 0
-15 21 -15 130 l0 130 33 -1 c17 -1 24 -3 15 -6z m1132 -118 l0 -125 54 0 c42
0 58 5 79 24 53 49 46 154 -12 193 -33 22 -33 23 -9 23 63 0 106 -78 87 -156
-18 -70 -46 -88 -145 -93 l-84 -3 0 131 c0 110 2 131 15 131 13 0 15 -21 15
-125z m470 54 c0 -66 1 -70 20 -65 11 3 29 9 40 12 21 6 34 39 28 71 -2 10
-19 26 -38 36 l-35 18 40 -7 c49 -8 75 -29 75 -61 0 -24 -34 -66 -60 -75 -11
-3 -3 -18 28 -55 47 -57 50 -63 23 -63 -11 0 -36 23 -61 55 -23 30 -46 55 -51
55 -5 0 -9 -25 -9 -55 0 -48 -2 -55 -20 -55 -19 0 -20 7 -20 123 0 125 2 137
27 137 10 0 13 -18 13 -71z m405 -51 l0 -123 45 -6 c43 -6 42 -6 -17 -7 l-63
-2 0 123 c0 68 3 127 7 130 23 23 28 0 28 -115z m63 115 c-10 -2 -26 -2 -35 0
-10 3 -2 5 17 5 19 0 27 -2 18 -5z m1319 0 c-28 -3 -41 -10 -49 -28 -14 -32
-1 -52 58 -84 58 -31 76 -68 54 -108 -23 -40 -42 -42 -27 -3 15 40 3 59 -57
88 -29 14 -50 32 -56 48 -14 36 -13 42 15 69 18 19 34 25 62 23 l38 -1 -38 -4z
m-4156 -65 c-17 -29 -31 -49 -31 -44 0 11 54 106 58 101 2 -2 -10 -27 -27 -57z
m1236 -45 c89 -94 122 -143 96 -143 -16 0 -213 216 -213 233 0 9 3 17 7 17 4
0 54 -48 110 -107z m2017 39 c74 -175 76 -182 57 -182 -12 0 -25 16 -39 50
-21 49 -22 50 -64 50 -51 0 -63 -7 -73 -40 -8 -26 -35 -70 -35 -57 0 3 15 39
33 79 19 40 43 94 53 120 10 27 24 48 29 48 6 0 23 -30 39 -68z m392 -24 c26
-51 51 -96 57 -99 11 -8 0 -49 -13 -49 -5 0 -28 38 -51 84 -24 47 -46 83 -51
80 -4 -3 -8 13 -8 35 0 23 4 41 9 41 5 0 30 -42 57 -92z m188 0 c4 -46 9 -100
13 -122 5 -34 4 -38 -13 -34 -16 3 -21 18 -30 108 -8 67 -8 111 -2 123 16 31
25 10 32 -75z m-2507 0 c-2 -18 -4 -6 -4 27 0 33 2 48 4 33 2 -15 2 -42 0 -60z
m2240 -70 c-3 -8 -6 -5 -6 6 -1 11 2 17 5 13 3 -3 4 -12 1 -19z m-10 -80 c-3
-8 -6 -5 -6 6 -1 11 2 17 5 13 3 -3 4 -12 1 -19z m-1372 -567 c3 -10 -6 -50
-20 -87 l-26 -69 55 59 c47 51 57 57 70 46 9 -7 16 -22 16 -33 0 -19 2 -19 28
6 35 34 60 35 68 3 8 -33 0 -56 -41 -115 -23 -33 -30 -51 -22 -54 15 -5 -20
-47 -40 -47 -29 0 -23 31 21 108 62 107 63 151 1 75 -70 -85 -73 -88 -85 -77
-7 8 -3 23 16 57 14 26 21 47 16 47 -11 0 -101 -94 -126 -132 -19 -29 -46 -38
-46 -14 0 7 17 51 39 97 48 104 57 139 37 139 -8 0 -26 -11 -40 -25 -28 -28
-46 -32 -46 -12 0 18 28 43 60 55 29 11 56 0 65 -27z m-195 -6 c0 -8 -16 -43
-35 -77 -30 -57 -57 -148 -42 -148 3 0 20 15 36 33 45 47 37 20 -9 -32 -27
-31 -44 -42 -55 -37 -11 4 -15 13 -12 26 5 21 -7 28 -18 10 -3 -5 -15 -10 -26
-10 -10 0 -19 5 -19 10 0 16 -19 12 -50 -12 -42 -31 -54 -14 -30 40 11 23 15
40 10 37 -14 -9 -12 9 2 23 18 18 38 15 38 -5 0 -10 -9 -33 -21 -52 -11 -18
-18 -35 -15 -38 4 -5 176 162 176 171 0 3 9 21 21 40 21 36 49 48 49 21z m724
6 c3 -4 -12 -44 -34 -87 -22 -43 -42 -97 -45 -119 l-6 -40 53 58 c29 31 60 57
69 57 30 0 29 -28 -2 -60 -37 -37 -29 -38 27 -5 50 29 50 11 1 -22 -40 -28
-87 -31 -87 -6 0 13 -8 9 -33 -15 -40 -39 -57 -41 -57 -6 0 20 -3 24 -13 16
-7 -6 -28 -11 -47 -10 -19 0 -44 -2 -56 -6 -15 -6 -23 -2 -31 17 -8 18 -8 28
0 36 19 19 -2 25 -23 6 -24 -21 -26 -40 -5 -31 8 3 15 1 15 -4 0 -12 -37 -23
-50 -15 -18 11 -11 33 22 70 23 26 37 35 52 31 11 -3 25 -1 32 5 23 19 25 -9
5 -51 -30 -62 -7 -57 44 8 25 33 57 64 71 70 13 7 24 17 24 24 0 17 48 88 60
88 5 0 11 -4 14 -9z m-1319 -97 c-14 -31 -24 -58 -21 -61 2 -2 18 3 36 12 22
12 38 33 57 76 14 32 29 59 34 59 14 0 21 -20 11 -33 -5 -7 -26 -54 -47 -104
-39 -95 -62 -121 -52 -59 l6 35 -34 -16 c-27 -13 -38 -28 -56 -77 -30 -81 -39
-93 -56 -70 -24 33 -16 81 22 122 19 22 49 72 66 113 17 41 36 80 43 88 23 29
18 -27 -9 -85z m235 -74 c-23 -44 -24 -50 -10 -50 14 0 80 71 80 87 0 7 6 13
14 13 10 0 14 -11 13 -35 -1 -42 -49 -97 -68 -78 -9 9 -18 7 -37 -5 -23 -15
-25 -15 -38 3 -11 15 -17 16 -26 7 -7 -7 -20 -12 -30 -12 -30 0 -22 48 13 81
32 30 59 38 59 17 0 -8 6 -6 17 4 27 28 34 10 13 -32z"></path>
<path d="M3865 5679 c-394 -49 -803 -336 -955 -672 -58 -129 -74 -214 -75
-407 0 -180 7 -231 55 -385 63 -205 176 -408 294 -528 56 -57 126 -115 126
-104 0 3 -13 33 -30 68 -16 35 -40 106 -54 157 -84 315 -48 654 104 975 17 37
35 93 40 125 43 300 199 530 444 651 114 57 220 77 330 61 61 -8 94 -9 122 -1
22 6 57 11 79 12 l40 0 -40 15 c-102 38 -320 53 -480 33z"></path>
<path d="M4012 5589 c-73 -12 -164 -44 -228 -80 -106 -60 -247 -213 -301 -329
-41 -86 -79 -220 -62 -220 5 0 9 4 9 8 0 11 104 167 148 222 57 71 184 192
255 243 69 49 204 121 250 132 30 8 46 25 23 25 -8 0 -20 2 -28 4 -7 2 -37 0
-66 -5z"></path>
<path d="M4342 5592 c-13 -4 -22 -11 -21 -17 2 -5 32 -31 68 -56 37 -25 98
-80 137 -121 68 -72 73 -75 126 -81 140 -14 350 -168 461 -339 17 -26 33 -45
35 -43 15 15 -94 251 -160 348 -56 83 -170 194 -242 236 -85 50 -201 81 -300
80 -44 -1 -91 -4 -104 -7z"></path>
<path d="M4111 5543 c-61 -22 -174 -81 -246 -128 -149 -99 -310 -287 -427
-499 -35 -64 -38 -75 -38 -151 0 -177 70 -404 217 -700 94 -189 185 -310 341
-450 130 -118 157 -153 148 -189 -12 -47 -156 -60 -359 -32 -59 9 -132 23
-162 32 -83 24 -87 12 -7 -24 96 -43 246 -72 370 -72 197 0 463 65 585 143 87
56 81 70 -64 171 -148 103 -217 163 -289 251 -235 288 -390 659 -390 935 0
136 41 322 95 430 37 74 111 165 176 217 34 26 71 56 82 65 26 21 24 21 -32 1z"></path>
<path d="M4202 5535 c-123 -68 -215 -161 -280 -284 -75 -140 -111 -346 -91
-514 12 -101 48 -250 75 -312 l18 -40 7 55 c4 30 12 102 18 160 16 138 53 287
92 366 74 150 229 271 427 333 l82 26 -72 73 c-40 40 -86 82 -103 93 -30 20
-122 70 -127 68 -2 0 -22 -11 -46 -24z"></path>
<path d="M4530 5283 c-47 -9 -165 -54 -213 -82 -67 -39 -146 -107 -190 -163
-80 -101 -117 -221 -147 -481 -29 -246 -29 -247 31 -352 138 -241 273 -396
449 -514 130 -87 160 -117 160 -157 0 -18 -4 -36 -10 -39 -5 -3 -10 -10 -10
-16 0 -15 114 60 186 123 96 82 181 184 198 238 14 44 31 132 39 200 7 55 -11
167 -33 218 -20 45 -75 112 -92 112 -4 0 -8 -54 -8 -119 0 -208 -48 -359 -155
-491 -52 -65 -117 -110 -159 -110 -52 0 -134 80 -173 169 -34 75 -42 195 -19
273 22 75 88 171 153 223 67 52 166 94 244 102 59 6 59 6 59 38 0 99 -90 467
-155 630 -36 90 -102 205 -118 204 -7 -1 -23 -4 -37 -6z"></path>
<path d="M4660 5218 c21 -40 50 -103 64 -140 58 -156 133 -461 151 -610 5 -45
11 -58 26 -63 32 -11 89 -65 110 -106 43 -85 60 -232 38 -328 -5 -24 -7 -46
-5 -49 3 -2 21 28 41 69 103 214 148 510 110 722 -24 136 -130 303 -269 423
-90 77 -139 108 -215 134 -94 31 -95 30 -51 -52z"></path>
<path d="M3342 4728 c-39 -79 -85 -224 -107 -340 -24 -126 -21 -370 5 -497 29
-138 82 -266 143 -343 21 -27 113 -65 223 -93 121 -30 350 -52 414 -39 61 13
63 34 7 87 -205 195 -263 258 -327 353 -71 107 -165 289 -223 434 -52 131
-107 333 -107 398 0 51 -13 69 -28 40z"></path>
<path d="M4740 4376 c-214 -46 -369 -258 -333 -454 15 -78 49 -148 95 -194 62
-62 120 -50 200 42 104 118 162 306 156 498 -4 131 -7 133 -118 108z"></path>
<path d="M2746 3761 c-60 -66 -31 -204 64 -300 22 -22 44 -41 49 -41 17 0 53
51 66 94 17 54 12 91 -22 163 -42 90 -116 130 -157 84z"></path>
<path d="M4713 2808 c-5 -7 -15 -28 -21 -45 l-11 -33 40 0 c44 0 47 8 20 58
-13 26 -20 31 -28 20z"></path>
<path d="M3380 1889 c-12 -16 -20 -32 -17 -35 6 -6 47 45 47 57 0 16 -8 10
-30 -22z"></path>
<path d="M4108 1895 c-10 -13 -18 -27 -18 -31 0 -10 30 17 41 38 14 26 -3 22
-23 -7z"></path>
<path d="M3066 1868 c-9 -12 -14 -23 -12 -25 7 -7 32 8 44 27 18 29 -12 27
-32 -2z"></path>
</g>
</svg>
